<?xml version="1.0" standalone="no"?><!DOCTYPE svg PUBLIC "-//W3C//DTD SVG 1.1//EN" "http://www.w3.org/Graphics/SVG/1.1/DTD/svg11.dtd"><svg t="1715168072688" class="icon" viewBox="0 0 1024 1024" version="1.1" xmlns="http://www.w3.org/2000/svg" p-id="4248" xmlns:xlink="http://www.w3.org/1999/xlink" width="200" height="200"><path d="M853.333333 887.466667H153.6c-81.92 0-136.533333-54.613333-136.533333-136.533334V273.066667c0-81.92 54.613333-136.533333 136.533333-136.533334H853.333333c81.92 0 153.6 71.68 153.6 153.6v443.733334c0 81.92-71.68 153.6-153.6 153.6zM153.6 170.666667c-61.44 0-102.4 40.96-102.4 102.4v477.866666c0 61.44 40.96 102.4 102.4 102.4H853.333333c61.44 0 119.466667-58.026667 119.466667-119.466666v-443.733334C972.8 228.693333 914.773333 170.666667 853.333333 170.666667H153.6z" fill="#1296db" p-id="4249"></path><path d="M204.8 716.8c-10.24 0-17.066667-6.826667-17.066667-17.066667v-409.6c0-10.24 6.826667-17.066667 17.066667-17.066666s17.066667 6.826667 17.066667 17.066666v409.6c0 10.24-6.826667 17.066667-17.066667 17.066667zM307.2 648.533333c-10.24 0-17.066667-6.826667-17.066667-17.066666v-341.333334c0-10.24 6.826667-17.066667 17.066667-17.066666s17.066667 6.826667 17.066667 17.066666v341.333334c0 10.24-6.826667 17.066667-17.066667 17.066666zM409.6 648.533333c-10.24 0-17.066667-6.826667-17.066667-17.066666v-341.333334c0-10.24 6.826667-17.066667 17.066667-17.066666s17.066667 6.826667 17.066667 17.066666v341.333334c0 10.24-6.826667 17.066667-17.066667 17.066666zM512 716.8c-10.24 0-17.066667-6.826667-17.066667-17.066667v-409.6c0-10.24 6.826667-17.066667 17.066667-17.066666s17.066667 6.826667 17.066667 17.066666v409.6c0 10.24-6.826667 17.066667-17.066667 17.066667zM614.4 648.533333c-10.24 0-17.066667-6.826667-17.066667-17.066666v-341.333334c0-10.24 6.826667-17.066667 17.066667-17.066666s17.066667 6.826667 17.066667 17.066666v341.333334c0 10.24-6.826667 17.066667-17.066667 17.066666zM716.8 648.533333c-10.24 0-17.066667-6.826667-17.066667-17.066666v-341.333334c0-10.24 6.826667-17.066667 17.066667-17.066666s17.066667 6.826667 17.066667 17.066666v341.333334c0 10.24-6.826667 17.066667-17.066667 17.066666zM819.2 716.8c-10.24 0-17.066667-6.826667-17.066667-17.066667v-409.6c0-10.24 6.826667-17.066667 17.066667-17.066666s17.066667 6.826667 17.066667 17.066666v409.6c0 10.24-6.826667 17.066667-17.066667 17.066667zM307.2 716.8c-3.413333 0-10.24-3.413333-10.24-6.826667-3.413333-3.413333-6.826667-6.826667-6.826667-10.24 0-3.413333 3.413333-10.24 6.826667-10.24 6.826667-6.826667 17.066667-6.826667 23.893333 0 3.413333 3.413333 6.826667 6.826667 6.826667 13.653334s-3.413333 10.24-6.826667 10.24-10.24 3.413333-13.653333 3.413333zM409.6 716.8c-3.413333 0-10.24-3.413333-10.24-3.413333-3.413333-3.413333-6.826667-6.826667-6.826667-13.653334s3.413333-10.24 6.826667-10.24c6.826667-6.826667 17.066667-6.826667 23.893333 0 3.413333 3.413333 3.413333 6.826667 3.413334 10.24s-3.413333 10.24-6.826667 10.24c0 3.413333-6.826667 6.826667-10.24 6.826667zM614.4 716.8c-3.413333 0-10.24-3.413333-10.24-3.413333-3.413333-3.413333-6.826667-6.826667-6.826667-13.653334s3.413333-10.24 3.413334-10.24c6.826667-6.826667 17.066667-6.826667 23.893333 0 3.413333 3.413333 6.826667 6.826667 6.826667 13.653334s-3.413333 10.24-3.413334 10.24c-3.413333 0-10.24 3.413333-13.653333 3.413333zM716.8 716.8c-3.413333 0-10.24-3.413333-13.653333-6.826667-3.413333-3.413333-3.413333-6.826667-3.413334-10.24s3.413333-10.24 6.826667-10.24c6.826667-6.826667 17.066667-6.826667 23.893333 0 3.413333 3.413333 6.826667 6.826667 6.826667 10.24s-3.413333 10.24-6.826667 10.24c-3.413333 3.413333-10.24 6.826667-13.653333 6.826667z" fill="#1296db" p-id="4250"></path></svg>